<svg width="512" height="512" viewBox="0 0 512 512" fill="none" xmlns="http://www.w3.org/2000/svg">
  <path d="M256 512C397.385 512 512 397.385 512 256C512 114.615 397.385 0 256 0C114.615 0 0 114.615 0 256C0 397.385 114.615 512 256 512Z" fill="#C8102E"></path>
  <path d="M256 480C379.712 480 480 379.712 480 256C480 132.288 379.712 32 256 32C132.288 32 32 132.288 32 256C32 379.712 132.288 480 256 480Z" fill="#FFFFFF"></path>
  <path d="M256 448C362.039 448 448 362.039 448 256C448 149.961 362.039 64 256 64C149.961 64 64 149.961 64 256C64 362.039 149.961 448 256 448Z" fill="#C8102E"></path>
  <path d="M256 416C344.366 416 416 344.366 416 256C416 167.634 344.366 96 256 96C167.634 96 96 167.634 96 256C96 344.366 167.634 416 256 416Z" fill="#FFFFFF"></path>
  <path d="M256 384C326.692 384 384 326.692 384 256C384 185.308 326.692 128 256 128C185.308 128 128 185.308 128 256C128 326.692 185.308 384 256 384Z" fill="#C8102E"></path>
  <path d="M256 352C309.019 352 352 309.019 352 256C352 202.981 309.019 160 256 160C202.981 160 160 202.981 160 256C160 309.019 202.981 352 256 352Z" fill="#FFFFFF"></path>
  <path d="M256 320C291.346 320 320 291.346 320 256C320 220.654 291.346 192 256 192C220.654 192 192 220.654 192 256C192 291.346 220.654 320 256 320Z" fill="#C8102E"></path>
  <path d="M256 288C273.673 288 288 273.673 288 256C288 238.327 273.673 224 256 224C238.327 224 224 238.327 224 256C224 273.673 238.327 288 256 288Z" fill="#FFFFFF"></path>
  <path d="M256 272C264.837 272 272 264.837 272 256C272 247.163 264.837 240 256 240C247.163 240 240 247.163 240 256C240 264.837 247.163 272 256 272Z" fill="#C8102E"></path>
</svg>